<?xml version="1.0" encoding="UTF-8" standalone="no"?>
<!-- Created with Inkscape (http://www.inkscape.org/) -->

<svg
   width="161.37769mm"
   height="161.37769mm"
   viewBox="0 0 161.37769 161.37769"
   version="1.1"
   id="svg1"
   xml:space="preserve"
   inkscape:export-filename="bitmap.svg"
   inkscape:export-xdpi="103.34"
   inkscape:export-ydpi="103.34"
   xmlns:inkscape="http://www.inkscape.org/namespaces/inkscape"
   xmlns:sodipodi="http://sodipodi.sourceforge.net/DTD/sodipodi-0.dtd"
   xmlns="http://www.w3.org/2000/svg"
   xmlns:svg="http://www.w3.org/2000/svg"><sodipodi:namedview
     id="namedview1"
     pagecolor="#505050"
     bordercolor="#eeeeee"
     borderopacity="1"
     inkscape:showpageshadow="0"
     inkscape:pageopacity="0"
     inkscape:pagecheckerboard="0"
     inkscape:deskcolor="#505050"
     inkscape:document-units="mm"
     inkscape:zoom="0.9612794"
     inkscape:cx="55.654995"
     inkscape:cy="394.78636"
     inkscape:window-width="3834"
     inkscape:window-height="2129"
     inkscape:window-x="3840"
     inkscape:window-y="0"
     inkscape:window-maximized="1"
     inkscape:current-layer="layer1" /><defs
     id="defs1" /><g
     inkscape:label="Layer 1"
     inkscape:groupmode="layer"
     id="layer1"
     transform="translate(-25.766251,-58.01578)"><circle
       style="fill:#1a2c41;fill-opacity:1;stroke:none;stroke-width:1.3;stroke-linecap:butt;stroke-miterlimit:4;stroke-dasharray:none"
       id="path3"
       cx="106.45509"
       cy="138.70462"
       r="80.688843" /><path
       style="fill:#ffffff"
       d="m 99.925034,185.51381 c 13.533426,-2.70218 24.874126,-4.97394 25.201556,-5.04836 0.57867,-0.13153 0.59531,-0.22842 0.59531,-3.46625 v -3.33093 l -0.7276,0.1839 c -0.40019,0.10114 -4.47808,0.95006 -9.06198,1.88647 -4.58391,0.93641 -13.335,2.72482 -19.446874,3.97423 l -11.112499,2.27166 -2.248958,2.17723 c -2.423903,2.34661 -4.0341,3.55948 -7.14375,5.38101 -1.091406,0.63931 -1.686719,1.09976 -1.322916,1.02323 0.363802,-0.0765 11.73427,-2.35001 25.267711,-5.05219 z m -29.949322,-2.09585 c 3.949874,-1.34022 6.452927,-2.97851 9.464896,-6.19493 3.034081,-3.24002 4.824558,-6.59903 6.115905,-11.47369 l 0.585489,-2.21014 0.144639,-34.26354 c 0.07955,-18.84495 0.204171,-34.382604 0.276931,-34.528125 0.07276,-0.145521 0.043,-0.294349 -0.06615,-0.330729 -0.109141,-0.03638 -3.145234,-0.06615 -6.746875,-0.06617 l -6.548437,-2.1e-5 0.07016,33.381565 c 0.07838,37.29082 0.184855,35.02099 -1.79972,38.36568 -1.375525,2.31823 -2.281309,3.18666 -4.423872,4.24144 -1.680533,0.82732 -1.92493,0.87282 -4.688922,0.87282 -2.729004,0 -3.030069,-0.054 -4.695241,-0.84287 -3.407684,-1.61429 -5.68196,-4.84371 -5.955173,-8.45622 l -0.147153,-1.94571 h -6.31181 -6.311811 v 1.95045 c 0,1.18913 0.248805,2.93127 0.637419,4.46323 2.312528,9.11626 8.802001,15.51379 17.755242,17.5037 1.374936,0.30559 2.965442,0.38811 6.213588,0.32237 3.888216,-0.0787 4.591475,-0.16498 6.430889,-0.78911 z m 86.144048,0.36187 5.1886,1e-5 -0.0775,-43.7224 c -0.0559,-31.51529 0.005,-44.006611 0.21677,-44.740351 0.16186,-0.559871 0.25628,-1.043248 0.20981,-1.074172 -0.0465,-0.03092 -2.99984,0.01043 -6.56305,0.09191 l -6.47857,0.14813 -0.96301,1.455208 c -0.52965,0.800365 -1.59308,2.46724 -2.36319,3.704167 -0.7701,1.236928 -1.48397,2.308488 -1.58636,2.381248 -0.10239,0.0728 -0.52084,0.78714 -0.92987,1.5875 -0.40904,0.80037 -1.0792,1.88906 -1.48925,2.41933 -0.41006,0.53026 -0.74555,1.0375 -0.74555,1.12719 0,0.0897 -0.39124,0.7274 -0.86942,1.41714 -0.47817,0.68973 -1.63778,2.56374 -2.57689,4.16447 -0.93911,1.60073 -2.54218,4.23381 -3.56236,5.85128 -1.02018,1.61748 -1.98221,3.15783 -2.13783,3.423 -0.24816,0.42284 -0.3933,0.28896 -1.18029,-1.08878 -0.49354,-0.864 -2.50933,-4.15663 -4.47955,-7.31694 -7.02998,-11.2764 -10.99625,-17.725159 -11.36929,-18.485333 l -0.37873,-0.771777 h -6.55089 -6.55089 l 0.37955,0.727604 c 0.32211,0.61748 0.3798,4.64649 0.38119,26.620066 l 0.002,25.89247 0.85989,-0.1745 c 0.47295,-0.096 3.24115,-0.67956 6.15157,-1.29684 l 5.29166,-1.12234 0.13229,-13.35083 0.13229,-13.35084 0.77106,1.19063 c 0.42409,0.65484 2.16177,3.33375 3.86153,5.95312 1.69975,2.61938 5.08959,7.85813 7.53297,11.64167 2.44338,3.78354 4.52604,6.97285 4.62813,7.08736 0.19787,0.22194 1.37115,-1.4903 7.48533,-10.92382 4.50429,-6.94963 8.65639,-13.29308 9.43604,-14.41607 l 0.54848,-0.79002 v 33.03901 33.039 l 1.22756,-0.16825 c 0.67515,-0.0925 3.56242,-0.16825 6.41614,-0.16825 z m -62.652685,-9.27848 c 2.096667,-0.4465 9.586645,-1.99001 16.644405,-3.43003 7.05776,-1.44002 13.45737,-2.75012 14.22136,-2.91133 l 1.38906,-0.29312 v -3.317 -3.31699 l -0.65822,0.1652 c -0.36201,0.0909 -5.63053,1.17711 -11.70781,2.41389 -6.07728,1.23678 -13.415926,2.75865 -16.308122,3.38193 l -5.258532,1.13324 -0.629841,2.18164 c -0.346413,1.1999 -0.928877,2.77176 -1.294363,3.49301 -0.365487,0.72125 -0.562267,1.31137 -0.43729,1.31137 0.124977,0 1.942686,-0.36532 4.039353,-0.81181 z m 7.864625,-14.11448 c 4.46508,-0.93344 11.7795,-2.44107 16.25426,-3.35028 l 8.13594,-1.65312 v -3.2643 c 0,-1.79536 -0.0298,-3.26418 -0.0661,-3.26404 -0.16698,6.5e-4 -22.61794,4.61599 -27.450512,5.64312 l -5.423958,1.15282 -0.07429,3.21649 c -0.05089,2.20328 0.01717,3.21648 0.216048,3.21648 0.159686,0 3.943585,-0.76372 8.408662,-1.69717 z"
       id="path2"
       sodipodi:nodetypes="ssscssscssssssscsssscsssscscccssssssccccsscssssssssssssscccscccscccssssssccccccsssccccsscsssscscssscsscc" /></g></svg>
